<?xml version="1.0" encoding="utf-8"?>
<!-- Generator: Adobe Illustrator 21.1.0, SVG Export Plug-In . SVG Version: 6.00 Build 0)  -->
<svg version="1.1" id="Calque_1" xmlns="http://www.w3.org/2000/svg" xmlns:xlink="http://www.w3.org/1999/xlink" x="0px" y="0px"
	 viewBox="0 0 432 432" style="enable-background:new 0 0 432 432;" xml:space="preserve">
<style type="text/css">
	.st0{fill:#CCCCCC;}
	.st1{fill:#B3B3B3;}
	.st2{fill:#D06C5D;}
	.st3{fill:#961F21;}
	.st4{fill:#8AC640;}
	.st5{fill:#CCA1CC;}
	.st6{fill:#BCD601;}
	.st7{fill:#FFCB39;}
	.st8{fill:#FC8792;}
	.st9{fill:#F5CED3;}
	.st10{fill:#1A1A1A;}
	.st11{fill:#F9F1DA;}
	.st12{fill:#E6E6E6;}
	.st13{fill:#DDC2A8;}
	.st14{fill:#97B87F;}
	.st15{fill:#FAA821;}
	.st16{fill:#333333;}
	.st17{fill:#4EBEB8;}
	.st18{fill:#ABDFEC;}
	.st19{fill:#FAA74B;}
	.st20{fill:#8C6239;}
	.st21{fill:#F06386;}
	.st22{fill:#F8E7D6;}
	.st23{fill:#D3C7BE;}
	.st24{fill:#E2D2C3;}
	.st25{fill:#9294CD;}
	.st26{fill:#E66667;}
	.st27{fill:#FFD602;}
	.st28{fill:#B776BA;}
	.st29{fill:#C69C6D;}
	.st30{fill:#E49F90;}
	.st31{fill:#EAC0B4;}
	.st32{fill:#D3B1AF;}
	.st33{fill:#F2F2F2;}
	.st34{fill:#9CCCB2;}
	.st35{fill:#CDB48C;}
	.st36{fill:#73C977;}
	.st37{fill:none;}
	.st38{fill:#EFB156;}
	.st39{fill:#D7F5F3;}
	.st40{fill:#DA407B;}
	.st41{fill:#DA4147;}
	.st42{fill:#912D61;}
	.st43{fill:#BFB49D;}
	.st44{fill:#FFFFFF;}
	.st45{fill:#23B6DB;}
	.st46{fill:#D7DD50;}
	.st47{fill:#DA444C;}
	.st48{fill:#4D4D4D;}
	.st49{fill:#97857A;}
	.st50{fill:#84735F;}
	.st51{fill:#6E2521;}
	.st52{fill:#3F3C35;}
	.st53{fill:#A1B099;}
	.st54{fill:#D4CEB9;}
	.st55{fill:#854E4C;}
	.st56{fill:#B9986D;}
	.st57{fill:#BAAC91;}
	.st58{fill:#3F4650;}
	.st59{fill:#7B7B73;}
	.st60{fill:#5A5B60;}
	.st61{fill:#984831;}
	.st62{fill:#B1885C;}
	.st63{fill:#653F34;}
	.st64{fill:#DCC69D;}
	.st65{fill:#727D6D;}
	.st66{fill:#9B7455;}
	.st67{fill:#826D56;}
	.st68{fill:#C3A88B;}
	.st69{fill:#96967A;}
	.st70{fill:#9F6B56;}
</style>
<g>
<!-- 	<g>
		<path class="st60" d="M327.7,206.7c0.1,0.3,0.1,0.5,0.2,0.6c1.9,2.3,2.9,5.2,4.1,7.9c0.4,0.8,0.5,1.7-0.1,2.4
			c-0.7,0.8-1.5,0.7-2.4,0.5c-1.1-0.3-2.1-0.4-3.2-0.6c-3.3-0.5-6.4,0.2-8.8,2.5c-1.9,1.7-4.1,1.3-4.3-1.8c0-0.5-0.1-1-0.1-1.5
			c0-2.6-1.6-4.2-3.8-5.2c-2.2-1-4.4-0.9-6.2,0.9c-0.5,0.4-0.9,0.9-1.4,1.3c-1.1,1-2.2,1.1-3.2,0.1c-1.8-1.9-4-2.4-6.4-2.6
			c-2.3-0.2-4.4,0.7-6.3,2c-1.2,0.8-2.4,1.5-3.9,2.5c0.9,0.3,1.5,0.4,2.1,0.6c4.3,1.3,7.9,3.7,10.4,7.5c2.3,3.4,2.9,7,0.8,10.7
			c-2.2,3.8-5.6,5.8-10.1,5.9c-0.9,0-1.8-0.3-2.6-0.6c-2.5-1.2-3.2-3.7-1.7-6c0.7-1,1.7-1.9,2.4-2.9c0.8-1,1.6-2,2.2-3.1
			c1-2,0.5-3.8-1.2-5.2c-1.7-1.3-3.7-1.9-5.8-2c-2.5-0.1-5,0.3-7.4,1.4c-6.5,2.9-13.3,4.4-20.4,4.5c-9.6,0.1-18.6-2.1-26.6-7.4
			c-2-1.3-3.9-2.9-5.6-4.5c-1-1-1.7-2.3-2.5-3.5c-0.3-0.6-0.4-1.3-0.5-2c-0.1-0.7,0.1-1.4,0.8-1.8c0.7-0.4,1.3-0.2,1.9,0.2
			c1.5,1,2.9,2.1,4.4,3c5.6,3.1,11.5,5.2,17.8,6.1c6.4,1,12.8,0.7,19.1-1.3c3.6-1.2,6.9-2.9,9.2-6c1.2-1.7,1.5-3.5,0.8-5.4
			c-0.5-1.5-1.4-2.8-2.7-3.7c-2.5-1.9-5.2-2.8-8.4-2.2c-1.9,0.4-3.7,0.7-5.3,2c0.6,0.2,1.1,0.4,1.5,0.6c3.6,1.8,4.1,6.7,1,9.2
			c-2.3,1.9-5.4,2-8.1,0.4c-2.3-1.4-3.6-4.3-2.9-7.3c0.3-1.2,0.8-2.5,1.6-3.6c1.7-2.4,4.1-4,6.8-5c2.7-1,5.4-1.8,8.4-1.7
			c6.9,0.2,13.3,5,14.9,11.5c0.3,1.3,0.4,2.6,0.6,4c0.4-0.3,0.7-0.6,0.9-0.8c6.8-7.3,15.2-11.6,24.9-13.4c6.8-1.3,13.7-1.7,20.6-1.3
			c8.6,0.5,16.9,2.2,24.8,5.8c5.1,2.3,9.6,5.4,13.5,9.4c2.5,2.5,4.4,5.4,5.3,8.9c0.2,1,0.3,2,0.3,3.1c-0.1,3.6-3.1,6-6.7,5.4
			c-1.6-0.3-3-0.9-4.2-1.9c-1.6-1.3-3.1-2.7-4.7-4c-0.5-0.4-0.9-0.9-1.6-1.2c0.3,0.7,0.6,1.3,0.8,2c2.2,5.2,2.6,10.4,0.5,15.7
			c-3.6,8.8-13.9,12.6-22.2,8c-4.5-2.5-7-6.1-6.7-11.5c0.1-1.7,0.8-3.2,1.9-4.5c2.5-3,7.4-4.1,11-2.5c1.5,0.7,2.6,1.9,3.1,3.5
			c0.3,1,0,2-0.7,2.5c-0.7,0.5-1.7,0.4-2.6-0.3c-0.2-0.2-0.4-0.4-0.6-0.6c-1.7-1.7-4-1.8-5.8-0.2c-0.9,0.8-1.2,1.8-1,3
			c0.3,1.5,1.1,2.8,2.2,3.8c4,3.3,10,2.3,13.1-2.3c2.1-3.2,2.6-6.8,1.6-10.6c-1.1-4-3.3-7.5-6.1-10.5c-2.5-2.7-5.6-4.8-9-6.3
			C328.8,207.1,328.3,207,327.7,206.7z"/>
		<path class="st60" d="M99.4,206.7c-0.1,0.3-0.1,0.5-0.2,0.6c-1.9,2.3-2.9,5.2-4.1,7.9c-0.4,0.8-0.5,1.7,0.1,2.4
			c0.7,0.8,1.5,0.7,2.4,0.5c1.1-0.3,2.1-0.4,3.2-0.6c3.3-0.5,6.4,0.2,8.8,2.5c1.9,1.7,4.1,1.3,4.3-1.8c0-0.5,0.1-1,0.1-1.5
			c0-2.6,1.6-4.2,3.8-5.2c2.2-1,4.4-0.9,6.2,0.9c0.5,0.4,0.9,0.9,1.4,1.3c1.1,1,2.2,1.1,3.2,0.1c1.8-1.9,4-2.4,6.4-2.6
			c2.3-0.2,4.4,0.7,6.3,2c1.2,0.8,2.4,1.5,3.9,2.5c-0.9,0.3-1.5,0.4-2.1,0.6c-4.3,1.3-7.9,3.7-10.4,7.5c-2.3,3.4-2.9,7-0.8,10.7
			c2.2,3.8,5.6,5.8,10.1,5.9c0.9,0,1.8-0.3,2.6-0.6c2.5-1.2,3.2-3.7,1.7-6c-0.7-1-1.7-1.9-2.4-2.9c-0.8-1-1.6-2-2.2-3.1
			c-1-2-0.5-3.8,1.2-5.2c1.7-1.3,3.7-1.9,5.8-2c2.5-0.1,5,0.3,7.4,1.4c6.5,2.9,13.3,4.4,20.4,4.5c9.6,0.1,18.6-2.1,26.6-7.4
			c2-1.3,3.9-2.9,5.6-4.5c1-1,1.7-2.3,2.5-3.5c0.3-0.6,0.4-1.3,0.5-2c0.1-0.7-0.1-1.4-0.8-1.8c-0.7-0.4-1.3-0.2-1.9,0.2
			c-1.5,1-2.9,2.1-4.4,3c-5.6,3.1-11.5,5.2-17.8,6.1c-6.4,1-12.8,0.7-19.1-1.3c-3.6-1.2-6.9-2.9-9.2-6c-1.2-1.7-1.5-3.5-0.8-5.4
			c0.5-1.5,1.4-2.8,2.7-3.7c2.5-1.9,5.2-2.8,8.4-2.2c1.9,0.4,3.7,0.7,5.3,2c-0.6,0.2-1.1,0.4-1.5,0.6c-3.6,1.8-4.1,6.7-1,9.2
			c2.3,1.9,5.4,2,8.1,0.4c2.3-1.4,3.6-4.3,2.9-7.3c-0.3-1.2-0.8-2.5-1.6-3.6c-1.7-2.4-4.1-4-6.8-5c-2.7-1-5.4-1.8-8.4-1.7
			c-6.9,0.2-13.3,5-14.9,11.5c-0.3,1.3-0.4,2.6-0.6,4c-0.4-0.3-0.7-0.6-0.9-0.8c-6.8-7.3-15.2-11.6-24.9-13.4
			c-6.8-1.3-13.7-1.7-20.6-1.3c-8.6,0.5-16.9,2.2-24.8,5.8c-5.1,2.3-9.6,5.4-13.5,9.4c-2.5,2.5-4.4,5.4-5.3,8.9
			c-0.2,1-0.3,2-0.3,3.1c0.1,3.6,3.1,6,6.7,5.4c1.6-0.3,3-0.9,4.2-1.9c1.6-1.3,3.1-2.7,4.7-4c0.5-0.4,0.9-0.9,1.6-1.2
			c-0.3,0.7-0.6,1.3-0.8,2c-2.2,5.2-2.6,10.4-0.5,15.7c3.6,8.8,13.9,12.6,22.2,8c4.5-2.5,7-6.1,6.7-11.5c-0.1-1.7-0.8-3.2-1.9-4.5
			c-2.5-3-7.4-4.1-11-2.5c-1.5,0.7-2.6,1.9-3.1,3.5c-0.3,1,0,2,0.7,2.5c0.7,0.5,1.7,0.4,2.6-0.3c0.2-0.2,0.4-0.4,0.6-0.6
			c1.7-1.7,4-1.8,5.8-0.2c0.9,0.8,1.2,1.8,1,3c-0.3,1.5-1.1,2.8-2.2,3.8c-4,3.3-10,2.3-13.1-2.3c-2.1-3.2-2.6-6.8-1.6-10.6
			c1.1-4,3.3-7.5,6.1-10.5c2.5-2.7,5.6-4.8,9-6.3C98.2,207.1,98.7,207,99.4,206.7z"/>
	</g> -->
	<g>
		<g>
			<path class="st52" d="M262,137.1c-0.2-1.6-0.4-3-0.5-4.4c0-1.8,0.8-3.3,2.5-4c1.7-0.8,3.4-0.6,4.8,0.6c1.4,1.1,2.7,2.3,4.1,3.5
				c1.9,1.6,3.8,3.3,5.7,5c4.8,4.2,10.5,6.3,16.7,6.9c1.1,0.1,2.3,0.2,3.4,0.3c1.3,0.1,2.5,0.4,3,1.9c0.4,1.2-0.1,2.6-1.5,3.5
				c-2.2,1.3-4.6,2.4-7.1,3c-13.1,2.7-25.3,0.6-36.4-7c-3.4-2.3-6.5-4.9-9.8-7.3c-3.7-2.7-7.6-5-12-6.2c-1.7-0.5-3.5-0.8-5.2-0.8
				c-3.9,0-6.9,2.7-7.3,6.6c-0.2,2,0.7,3.8,2,5.2c2.4,2.7,5.6,4,9.2,3.7c1.7-0.1,2.6-0.8,3.4-2.3c-0.5-1-1.4-1.5-2.3-1.9
				c-0.5-0.2-1.1-0.4-1.5-0.8c-1.3-1-1.1-2.7,0.4-3.3c0.6-0.2,1.4-0.3,2-0.2c3.8,0.5,5.7,3.1,6.3,6.4c0.5,2.8-1.9,6-5.1,6.9
				c-2.4,0.7-4.8,0.7-7.2,0.2c-1.3-0.3-2.6-0.7-3.8-1.1c-10-3.5-10.9-13.6-7.1-20.1c3.5-6,10.1-8.8,16.9-7.7c5.1,0.8,9.7,2.8,14,5.4
				c3.6,2.2,7.1,4.7,10.6,7.1C260.8,136.3,261.4,136.7,262,137.1z"/>
			<path class="st52" d="M308.8,127.6c0.9-0.7,1.8-1.5,2.8-2.2c4.1-3.3,8.5-6.2,13.7-7.8c3.2-1,6.4-1.8,9.8-1.6
				c7.7,0.4,13.8,5.5,15.2,13.1c0.9,4.6-0.3,8.8-3,12.5c-4.4,6.1-12.4,9.2-19.3,7.2c-3.4-1-6.1-2.8-7.8-6.1
				c-1.7-3.5-0.7-7.4,2.4-9.6c2-1.5,4.3-2.1,6.8-1.9c1.4,0.1,2.3,0.9,2.4,2c0.1,1.1-0.7,2.1-2.1,2.4c-0.6,0.1-1.1,0.1-1.7,0.2
				c-1.5,0.3-3,0.7-3.5,2.3c-0.3,1.1,0.7,2.6,2.3,3.6c1.6,1,3.4,1.2,5.2,0.9c3.6-0.6,6.6-2.3,8.6-5.5c3.3-5.4,0.2-11.4-6-12
				c-3.2-0.3-6.2,0.3-9.1,1.5c-3,1.2-5.8,2.7-8.7,4.2c-2.7,1.3-5.2,2.9-7.9,4.1c-4.1,1.9-8.5,3.3-13.1,3.4c-5.4,0.1-10.5-1-15.2-3.6
				c-0.4-0.2-0.8-0.5-1.1-0.8c-1-0.9-1.3-2.1-0.8-3.1c0.4-1,1.4-1.5,2.7-1.4c2.5,0.2,4.9-0.2,7.3-0.8c3.3-0.8,6-2.7,8-5.4
				c1-1.3,1.8-2.8,2.8-4.1c1-1.4,2-2.8,3.2-4c2.6-2.5,5.8-2.1,8,0.8c1.3,1.8,1.7,3.6,1,5.7c-0.6,1.7-1.4,3.2-2.1,4.9
				c-0.2,0.4-0.5,0.8-0.8,1.2C308.7,127.5,308.7,127.6,308.8,127.6z"/>
			<path class="st52" d="M338.2,164.7c-3.5,0-6.4-0.6-9.3-1.4c-4.6-1.4-9.1-3.1-13.1-6c-3.1-2.3-5.8-5-7.7-8.5
				c-0.4-0.8-0.7-1.6-0.3-2.4c0.5-1.1,1.7-1.5,3-1c1,0.4,1.9,1,2.9,1.5c1.8,1,3.6,2,5.5,2.9c4,2,8.3,2.8,12.8,2.9
				c3,0.1,6,0.3,8.9,0.7c1.6,0.2,3.2,0.7,4.5,1.5c3.1,1.9,3,4.3,1.4,6.9c-0.2,0.4-0.7,0.7-1.2,1
				C343.3,164.2,340.6,164.8,338.2,164.7z"/>
			<path class="st52" d="M302.6,155c0-1.5,0.5-2.4,1.5-2.7c0.9-0.3,1.8,0,2.5,1c1.7,2.2,3.8,3.9,6,5.6c1.7,1.2,3.3,2.5,4.9,3.8
				c0.8,0.7,1.6,1.7,2.1,2.7c0.9,1.7,0.4,3.5-1.2,4.6c-1.9,1.4-3.9,1.9-6.2,1c-2.7-1-4.8-2.7-6.2-5.2c-1.3-2.3-2.6-4.6-3-7.3
				C302.8,157.3,302.7,156.1,302.6,155z"/>
			<path class="st52" d="M289.4,160.6c0-2.5,1.9-4.5,4.4-4.5c2.7-0.1,5,2.3,5.1,5c0.1,2.7-2.2,5-5,5.1
				C291.1,166.1,289.4,164,289.4,160.6z"/>
		</g>
		<g>
			<path class="st52" d="M166.7,137.1c0.2-1.6,0.4-3,0.5-4.4c0-1.8-0.8-3.3-2.5-4c-1.7-0.8-3.4-0.6-4.8,0.6
				c-1.4,1.1-2.7,2.3-4.1,3.5c-1.9,1.6-3.8,3.3-5.7,5c-4.8,4.2-10.5,6.3-16.7,6.9c-1.1,0.1-2.3,0.2-3.4,0.3c-1.3,0.1-2.5,0.4-3,1.9
				c-0.4,1.2,0.1,2.6,1.5,3.5c2.2,1.3,4.6,2.4,7.1,3c13.1,2.7,25.3,0.6,36.4-7c3.4-2.3,6.5-4.9,9.8-7.3c3.7-2.7,7.6-5,12-6.2
				c1.7-0.5,3.5-0.8,5.2-0.8c3.9,0,6.9,2.7,7.3,6.6c0.2,2-0.7,3.8-2,5.2c-2.4,2.7-5.6,4-9.2,3.7c-1.7-0.1-2.6-0.8-3.4-2.3
				c0.5-1,1.4-1.5,2.3-1.9c0.5-0.2,1.1-0.4,1.5-0.8c1.3-1,1.1-2.7-0.4-3.3c-0.6-0.2-1.4-0.3-2-0.2c-3.8,0.5-5.7,3.1-6.3,6.4
				c-0.5,2.8,1.9,6,5.1,6.9c2.4,0.7,4.8,0.7,7.2,0.2c1.3-0.3,2.6-0.7,3.8-1.1c10-3.5,10.9-13.6,7.1-20.1c-3.5-6-10.1-8.8-16.9-7.7
				c-5.1,0.8-9.7,2.8-14,5.4c-3.6,2.2-7.1,4.7-10.6,7.1C167.8,136.3,167.3,136.7,166.7,137.1z"/>
			<path class="st52" d="M119.8,127.6c-0.9-0.7-1.8-1.5-2.8-2.2c-4.1-3.3-8.5-6.2-13.7-7.8c-3.2-1-6.4-1.8-9.8-1.6
				c-7.7,0.4-13.8,5.5-15.2,13.1c-0.9,4.6,0.3,8.8,3,12.5c4.4,6.1,12.4,9.2,19.3,7.2c3.4-1,6.1-2.8,7.8-6.1c1.7-3.5,0.7-7.4-2.4-9.6
				c-2-1.5-4.3-2.1-6.8-1.9c-1.4,0.1-2.3,0.9-2.4,2c-0.1,1.1,0.7,2.1,2.1,2.4c0.6,0.1,1.1,0.1,1.7,0.2c1.5,0.3,3,0.7,3.5,2.3
				c0.3,1.1-0.7,2.6-2.3,3.6c-1.6,1-3.4,1.2-5.2,0.9c-3.6-0.6-6.6-2.3-8.6-5.5c-3.3-5.4-0.2-11.4,6-12c3.2-0.3,6.2,0.3,9.1,1.5
				c3,1.2,5.8,2.7,8.7,4.2c2.7,1.3,5.2,2.9,7.9,4.1c4.1,1.9,8.5,3.3,13.1,3.4c5.4,0.1,10.5-1,15.2-3.6c0.4-0.2,0.8-0.5,1.1-0.8
				c1-0.9,1.3-2.1,0.8-3.1c-0.4-1-1.4-1.5-2.7-1.4c-2.5,0.2-4.9-0.2-7.3-0.8c-3.3-0.8-6-2.7-8-5.4c-1-1.3-1.8-2.8-2.8-4.1
				c-1-1.4-2-2.8-3.2-4c-2.6-2.5-5.8-2.1-8,0.8c-1.3,1.8-1.7,3.6-1,5.7c0.6,1.7,1.4,3.2,2.1,4.9c0.2,0.4,0.5,0.8,0.8,1.2
				C120,127.5,119.9,127.6,119.8,127.6z"/>
			<path class="st52" d="M90.4,164.7c3.5,0,6.4-0.6,9.3-1.4c4.6-1.4,9.1-3.1,13.1-6c3.1-2.3,5.8-5,7.7-8.5c0.4-0.8,0.7-1.6,0.3-2.4
				c-0.5-1.1-1.7-1.5-3-1c-1,0.4-1.9,1-2.9,1.5c-1.8,1-3.6,2-5.5,2.9c-4,2-8.3,2.8-12.8,2.9c-3,0.1-6,0.3-8.9,0.7
				c-1.6,0.2-3.2,0.7-4.5,1.5c-3.1,1.9-3,4.3-1.4,6.9c0.2,0.4,0.7,0.7,1.2,1C85.3,164.2,88.1,164.8,90.4,164.7z"/>
			<path class="st52" d="M126,155c0-1.5-0.5-2.4-1.5-2.7c-0.9-0.3-1.8,0-2.5,1c-1.7,2.2-3.8,3.9-6,5.6c-1.7,1.2-3.3,2.5-4.9,3.8
				c-0.8,0.7-1.6,1.7-2.1,2.7c-0.9,1.7-0.4,3.5,1.2,4.6c1.9,1.4,3.9,1.9,6.2,1c2.7-1,4.8-2.7,6.2-5.2c1.3-2.3,2.6-4.6,3-7.3
				C125.8,157.3,125.9,156.1,126,155z"/>
			<path class="st52" d="M139.3,160.6c0-2.5-1.9-4.5-4.4-4.5c-2.7-0.1-5,2.3-5.1,5c-0.1,2.7,2.2,5,5,5.1
				C137.6,166.1,139.2,164,139.3,160.6z"/>
		</g>
	</g>
<!-- 	<g>
		<path class="st68" d="M66.7,285c-0.3,0.4-0.8,0.8-1.1,1.3c-2,2.7-1.5,4.8,1.5,6.2c2.7,1.3,5.5,2,8.4,2.2c7.1,0.6,14-0.6,20.9-2.5
			c8.1-2.2,15.7-5.4,23.2-9c7.3-3.4,14.5-6.9,22.1-9.5c6.7-2.4,13.7-3.9,20.8-4c6.2-0.1,12.4,0.7,18.3,2.7
			c7.8,2.7,12.5,8.3,15.2,15.8c0.6,1.7,0.9,3.4,0.5,5.2c-0.1,0.7-0.4,1.5-0.7,2.2c-0.4,0.9-1.2,1.4-2.2,1.4
			c-1.1-0.1-1.7-0.7-2.1-1.7c-0.3-0.8-0.6-1.5-0.9-2.3c-2.1-5.3-6-8.1-11.5-8.9c-5.9-0.9-11.8-0.9-17.7-0.1
			c-9.4,1.2-18.6,3.4-27.5,6.7c-2.3,0.8-4.5,1.8-6.6,2.9c-2.9,1.5-5.4,3.6-7.2,6.3c-1.7,2.7-2.4,5.5-0.8,8.5
			c1.2,2.3,3.1,3.5,5.6,3.9c2.5,0.5,5,0.3,7.9-0.1c-0.5-0.3-0.8-0.5-1.1-0.6c-1.3-0.6-2.5-1.3-3.4-2.5c-1.4-1.8-1.5-4-0.1-5.8
			c0.6-0.8,1.4-1.6,2.3-2c4.1-2,8.4-2.1,12.6-0.4c2.2,0.9,3.6,2.6,3.8,5c0.2,1.7-0.4,3.3-1.3,4.7c-1.2,1.9-3,3.3-4.9,4.3
			c-3.6,1.9-7.4,3-11.4,3.5c-3.9,0.5-7.7-0.1-11.3-1.7c-5.2-2.3-8.5-6.2-9.4-11.9c-0.2-1.4,0-2.8,0-4.3c0-0.5,0.1-0.9,0.2-1.6
			c-0.8,0.2-1.4,0.4-2,0.6c-6.8,2.4-13.8,4.2-21,5c-6.2,0.7-12.4,0.6-18.5-1.2c-5.2-1.5-9.3-4.4-11.8-9.4c-2.5-5-2.1-9.9,1-14.5
			c2.2-3.3,5.4-5.6,8.9-7.4c3.7-1.8,7.6-3.2,11.9-3c2.6,0.1,4.9,1.1,6.7,3.1c1.8,2,2.2,4.3,1.3,6.8c-1.9,5.6-10.2,9.5-15.7,7.4
			C68.7,286.3,67.8,285.6,66.7,285z"/>
		<path class="st68" d="M365.3,285c0.3,0.4,0.8,0.8,1.1,1.3c2,2.7,1.5,4.8-1.5,6.2c-2.7,1.3-5.5,2-8.4,2.2c-7.1,0.6-14-0.6-20.9-2.5
			c-8.1-2.2-15.7-5.4-23.2-9c-7.3-3.4-14.5-6.9-22.1-9.5c-6.7-2.4-13.7-3.9-20.8-4c-6.2-0.1-12.4,0.7-18.3,2.7
			c-7.8,2.7-12.5,8.3-15.2,15.8c-0.6,1.7-0.9,3.4-0.5,5.2c0.1,0.7,0.4,1.5,0.7,2.2c0.4,0.9,1.2,1.4,2.2,1.4c1.1-0.1,1.7-0.7,2.1-1.7
			c0.3-0.8,0.6-1.5,0.9-2.3c2.1-5.3,6-8.1,11.5-8.9c5.9-0.9,11.8-0.9,17.7-0.1c9.4,1.2,18.6,3.4,27.5,6.7c2.3,0.8,4.5,1.8,6.6,2.9
			c2.9,1.5,5.4,3.6,7.2,6.3c1.7,2.7,2.4,5.5,0.8,8.5c-1.2,2.3-3.1,3.5-5.6,3.9c-2.5,0.5-5,0.3-7.9-0.1c0.5-0.3,0.8-0.5,1.1-0.6
			c1.3-0.6,2.5-1.3,3.4-2.5c1.4-1.8,1.5-4,0.1-5.8c-0.6-0.8-1.4-1.6-2.3-2c-4.1-2-8.4-2.1-12.6-0.4c-2.2,0.9-3.6,2.6-3.8,5
			c-0.2,1.7,0.4,3.3,1.3,4.7c1.2,1.9,3,3.3,4.9,4.3c3.6,1.9,7.4,3,11.4,3.5c3.9,0.5,7.7-0.1,11.3-1.7c5.2-2.3,8.5-6.2,9.4-11.9
			c0.2-1.4,0-2.8,0-4.3c0-0.5-0.1-0.9-0.2-1.6c0.8,0.2,1.4,0.4,2,0.6c6.8,2.4,13.8,4.2,21,5c6.2,0.7,12.4,0.6,18.5-1.2
			c5.2-1.5,9.3-4.4,11.8-9.4c2.5-5,2.1-9.9-1-14.5c-2.2-3.3-5.4-5.6-8.9-7.4c-3.7-1.8-7.6-3.2-11.9-3c-2.6,0.1-4.9,1.1-6.7,3.1
			c-1.8,2-2.2,4.3-1.3,6.8c1.9,5.6,10.2,9.5,15.7,7.4C363.3,286.3,364.2,285.6,365.3,285z"/>
		<path class="st68" d="M231.5,282.3c0.7-0.7,0.3-1.9-0.7-2.1l-9-1.3c-0.4-0.1-0.7-0.3-0.9-0.7l-4-8.2c-0.5-0.9-1.8-0.9-2.2,0
			l-4,8.2c-0.2,0.4-0.5,0.6-0.9,0.7l-9,1.3c-1,0.1-1.4,1.4-0.7,2.1l6.5,6.4c0.3,0.3,0.4,0.7,0.4,1.1l-1.5,9c-0.2,1,0.9,1.8,1.8,1.3
			l8.1-4.2c0.4-0.2,0.8-0.2,1.1,0l8.1,4.2c0.9,0.5,2-0.3,1.8-1.3l-1.5-9c-0.1-0.4,0.1-0.8,0.4-1.1L231.5,282.3z"/>
	</g> -->
</g>
</svg>
